HIERARCHY
ROOT Hips
{
    OFFSET   0.000000   0.000000   0.000000
    CHANNELS 6 Xposition Yposition Zposition Zrotation Xrotation Yrotation
    JOINT Chest
    {
        OFFSET   0.000000   8.007230   0.000000
        CHANNELS 3 Zrotation Xrotation Yrotation
        JOINT Chest2
        {
            OFFSET   0.000000  22.077100   0.000000
            CHANNELS 3 Zrotation Xrotation Yrotation
            JOINT Neck
            {
                OFFSET   0.000000  23.254800  -0.000021
                CHANNELS 3 Zrotation Xrotation Yrotation
                JOINT Head
                {
                    OFFSET   0.000000  14.370000   1.956610
                    CHANNELS 3 Zrotation Xrotation Yrotation
                    End Site
                    {
                        OFFSET   0.000000  19.566000   0.000000
                    }
                }
            }
            JOINT LeftCollar
            {
                OFFSET   3.911900  19.017000  -0.467063
                CHANNELS 3 Zrotation Xrotation Yrotation
                JOINT LeftShoulder
                {
                    OFFSET  10.383700   0.000000   0.000000
                    CHANNELS 3 Zrotation Xrotation Yrotation
                    JOINT LeftElbow
                    {
                        OFFSET  26.662100   0.001529   0.000325
                        CHANNELS 3 Zrotation Xrotation Yrotation
                        JOINT LeftWrist
                        {
                            OFFSET  28.869000  -0.000011  -0.000096
                            CHANNELS 3 Zrotation Xrotation Yrotation
                            JOINT LeftFinger0
                            {
                                OFFSET   2.044650  -2.323460   3.252850
                                CHANNELS 3 Zrotation Xrotation Yrotation
                                JOINT LeftFinger01
                                {
                                    OFFSET   3.088130   0.000000   0.000000
                                    CHANNELS 3 Zrotation Xrotation Yrotation
                                    JOINT LeftFinger02
                                    {
                                        OFFSET   2.639460   0.000000   0.000000
                                        CHANNELS 3 Zrotation Xrotation Yrotation
                                        End Site
                                        {
                                            OFFSET   2.582190   0.000000   0.000000
                                        }
                                    }
                                }
                            }
                            JOINT LeftFinger1
                            {
                                OFFSET   8.364480   0.000000   3.252850
                                CHANNELS 3 Zrotation Xrotation Yrotation
                                JOINT LeftFinger11
                                {
                                    OFFSET   4.646930   0.000000   0.000000
                                    CHANNELS 3 Zrotation Xrotation Yrotation
                                    JOINT LeftFinger12
                                    {
                                        OFFSET   2.323460   0.000000   0.000000
                                        CHANNELS 3 Zrotation Xrotation Yrotation
                                        End Site
                                        {
                                            OFFSET   2.273050   0.000000   0.000000
                                        }
                                    }
                                }
                            }
                            JOINT LeftFinger2
                            {
                                OFFSET   8.364480   0.000016   1.078090
                                CHANNELS 3 Zrotation Xrotation Yrotation
                                JOINT LeftFinger21
                                {
                                    OFFSET   5.111620   0.000000   0.000000
                                    CHANNELS 3 Zrotation Xrotation Yrotation
                                    JOINT LeftFinger22
                                    {
                                        OFFSET   2.788160   0.000017   0.000000
                                        CHANNELS 3 Zrotation Xrotation Yrotation
                                        End Site
                                        {
                                            OFFSET   2.727660   0.000000   0.000000
                                        }
                                    }
                                }
                            }
                            JOINT LeftFinger3
                            {
                                OFFSET   7.899780   0.000015  -1.078090
                                CHANNELS 3 Zrotation Xrotation Yrotation
                                JOINT LeftFinger31
                                {
                                    OFFSET   4.646920   0.000000   0.000000
                                    CHANNELS 3 Zrotation Xrotation Yrotation
                                    JOINT LeftFinger32
                                    {
                                        OFFSET   2.323470   0.000000   0.000000
                                        CHANNELS 3 Zrotation Xrotation Yrotation
                                        End Site
                                        {
                                            OFFSET   2.273050   0.000000   0.000000
                                        }
                                    }
                                }
                            }
                            JOINT LeftFinger4
                            {
                                OFFSET   7.435090   0.000000  -3.252850
                                CHANNELS 3 Zrotation Xrotation Yrotation
                                JOINT LeftFinger41
                                {
                                    OFFSET   3.717550   0.000000   0.000000
                                    CHANNELS 3 Zrotation Xrotation Yrotation
                                    JOINT LeftFinger42
                                    {
                                        OFFSET   1.858760   0.000000   0.000000
                                        CHANNELS 3 Zrotation Xrotation Yrotation
                                        End Site
                                        {
                                            OFFSET   1.818440   0.000000   0.000000
                                        }
                                    }
                                }
                            }
                        }
                    }
                }
            }
            JOINT RightCollar
            {
                OFFSET  -3.911900  19.017000  -0.467062
                CHANNELS 3 Zrotation Xrotation Yrotation
                JOINT RightShoulder
                {
                    OFFSET -10.383700   0.000015   0.000000
                    CHANNELS 3 Zrotation Xrotation Yrotation
                    JOINT RightElbow
                    {
                        OFFSET -26.662100   0.001341   0.000385
                        CHANNELS 3 Zrotation Xrotation Yrotation
                        JOINT RightWrist
                        {
                            OFFSET -28.869000   0.000025  -0.000080
                            CHANNELS 3 Zrotation Xrotation Yrotation
                            JOINT RightFinger0
                            {
                                OFFSET  -2.044650  -2.323490   3.252850
                                CHANNELS 3 Zrotation Xrotation Yrotation
                                JOINT RightFinger01
                                {
                                    OFFSET  -3.088130   0.000000   0.000000
                                    CHANNELS 3 Zrotation Xrotation Yrotation
                                    JOINT RightFinger02
                                    {
                                        OFFSET  -2.639460   0.000000   0.000000
                                        CHANNELS 3 Zrotation Xrotation Yrotation
                                        End Site
                                        {
                                            OFFSET  -2.582190   0.000000   0.000000
                                        }
                                    }
                                }
                            }
                            JOINT RightFinger1
                            {
                                OFFSET  -8.364480   0.000000   3.252850
                                CHANNELS 3 Zrotation Xrotation Yrotation
                                JOINT RightFinger11
                                {
                                    OFFSET  -4.646930   0.000000   0.000000
                                    CHANNELS 3 Zrotation Xrotation Yrotation
                                    JOINT RightFinger12
                                    {
                                        OFFSET  -2.323470   0.000000   0.000000
                                        CHANNELS 3 Zrotation Xrotation Yrotation
                                        End Site
                                        {
                                            OFFSET  -2.273050   0.000000   0.000000
                                        }
                                    }
                                }
                            }
                            JOINT RightFinger2
                            {
                                OFFSET  -8.364480   0.000000   1.078090
                                CHANNELS 3 Zrotation Xrotation Yrotation
                                JOINT RightFinger21
                                {
                                    OFFSET  -5.111610   0.000000   0.000000
                                    CHANNELS 3 Zrotation Xrotation Yrotation
                                    JOINT RightFinger22
                                    {
                                        OFFSET  -2.788160   0.000000   0.000000
                                        CHANNELS 3 Zrotation Xrotation Yrotation
                                        End Site
                                        {
                                            OFFSET  -2.727660   0.000000   0.000000
                                        }
                                    }
                                }
                            }
                            JOINT RightFinger3
                            {
                                OFFSET  -7.899780   0.000000  -1.078090
                                CHANNELS 3 Zrotation Xrotation Yrotation
                                JOINT RightFinger31
                                {
                                    OFFSET  -4.646920   0.000000   0.000000
                                    CHANNELS 3 Zrotation Xrotation Yrotation
                                    JOINT RightFinger32
                                    {
                                        OFFSET  -2.323470   0.000000   0.000000
                                        CHANNELS 3 Zrotation Xrotation Yrotation
                                        End Site
                                        {
                                            OFFSET  -2.273050   0.000000   0.000000
                                        }
                                    }
                                }
                            }
                            JOINT RightFinger4
                            {
                                OFFSET  -7.435090   0.000000  -3.252850
                                CHANNELS 3 Zrotation Xrotation Yrotation
                                JOINT RightFinger41
                                {
                                    OFFSET  -3.717550   0.000000   0.000000
                                    CHANNELS 3 Zrotation Xrotation Yrotation
                                    JOINT RightFinger42
                                    {
                                        OFFSET  -1.858770   0.000000   0.000000
                                        CHANNELS 3 Zrotation Xrotation Yrotation
                                        End Site
                                        {
                                            OFFSET  -1.818440   0.000000   0.000000
                                        }
                                    }
                                }
                            }
                        }
                    }
                }
            }
        }
    }
    JOINT LeftHip
    {
        OFFSET   9.783010   0.000000   0.000000
        CHANNELS 3 Zrotation Xrotation Yrotation
        JOINT LeftKnee
        {
            OFFSET   0.000070 -41.789100   0.000028
            CHANNELS 3 Zrotation Xrotation Yrotation
            JOINT LeftAnkle
            {
                OFFSET   0.000087 -41.133200  -0.000100
                CHANNELS 3 Zrotation Xrotation Yrotation
                JOINT LeftToe
                {
                    OFFSET   0.000000  -6.358960  14.674500
                    CHANNELS 3 Zrotation Xrotation Yrotation
                    End Site
                    {
                        OFFSET   0.000000   0.000000   3.913200
                    }
                }
            }
        }
    }
    JOINT RightHip
    {
        OFFSET  -9.783020   0.000000   0.000000
        CHANNELS 3 Zrotation Xrotation Yrotation
        JOINT RightKnee
        {
            OFFSET   0.000044 -41.789100  -0.000870
            CHANNELS 3 Zrotation Xrotation Yrotation
            JOINT RightAnkle
            {
                OFFSET  -0.000090 -41.133200  -0.000245
                CHANNELS 3 Zrotation Xrotation Yrotation
                JOINT RightToe
                {
                    OFFSET   0.000000  -6.358960  14.674500
                    CHANNELS 3 Zrotation Xrotation Yrotation
                    End Site
                    {
                        OFFSET   0.000000   0.000000   3.913200
                    }
                }
            }
        }
    }
}
MOTION
Frames: 4
Frame Time:   0.016667
 -5.031640  89.112000   1.576970   0.495603 -11.164400   1.844700   1.560660   8.532760  -2.763740   3.603390  16.975100  -5.862900   3.059320   1.817950  -0.096897   5.039210   3.655460  16.004400  -6.538400  -1.773310   9.075070 -70.432700 -15.827600 -36.608600   3.430700 -12.051800 -54.642500  -1.527100 -81.016700  -4.043090  49.205100  39.132800 -72.596600 -23.298900   0.009974   0.004349  -6.649480   0.001063  -0.006460 -29.096000  -0.756727   1.411460 -23.791300   0.029773   0.001505 -16.653900   0.020821   0.000772 -29.812200  -3.725570   6.502150 -44.534900   0.091962   0.006256 -29.660300   0.051013   0.036642 -26.849400  -3.452660   6.934460 -27.899300   0.082737  -0.008215 -18.581000   0.053598   0.013742 -25.581600  -5.982440  12.351300 -39.321600   0.066685   0.000430 -26.188200   0.037137   0.023845   6.652280   2.528050  10.883300  68.521600 -27.918100  39.223300 -11.964400 -19.755800  47.743400 -32.321000 -69.902000 -11.060100 -35.851100  35.807500  75.575700  32.898800  -0.003082   0.002055  11.449400   0.004347   0.013154  26.842200  -0.008520  -0.032955  21.926600   0.054205   0.030995  15.348600   0.042695   0.006672  24.693100  -3.997990  -8.501620  24.417300   0.118747   0.084311  16.262000   0.092676   0.027991  26.338100  -4.242260  -8.428050  26.592100   0.120846   0.078916  17.710400   0.093324   0.021192  29.036700  -4.607530  -8.163700  44.062600   0.122818   0.025867  29.345700   0.079245  -0.026691   5.495340  11.921800   0.023233   1.746490   5.391520  12.423100  -8.293990  -4.123780  -3.450520   0.000000   0.000000   0.000000   0.391148  15.892800  -6.218460   2.518670   0.139328 -13.293800  -1.338320  -4.749980   4.453080  -0.000000   0.000000  -0.000000
 -5.001870  89.118500   1.635960   0.486943 -10.988700   1.902390   1.554890   8.415390  -2.742720   3.578520  16.741700  -5.812980   2.889740   1.726060  -0.086867   4.758470   3.474260  15.869300  -6.555290  -1.856080   8.979010 -69.032800 -14.827900 -34.594300   3.726030 -11.672600 -55.037400   2.405290 -78.998900   0.093799  49.673900  40.060000 -72.431600 -23.929500   0.010418   0.004580  -6.964770   0.001174  -0.006557 -30.018600  -1.056310   1.873960 -24.549500   0.023777   0.001593 -17.184700   0.016480   0.000866 -30.873900  -3.661580   6.132050 -46.932800   0.088450   0.009079 -31.257300   0.045101   0.038986 -27.534600  -3.614980   6.924860 -29.653900   0.088582  -0.003904 -19.749500   0.056558   0.017168 -26.684100  -6.358420  12.490800 -41.045600   0.067186   0.001030 -27.336400   0.037167   0.025410   6.692350   2.486080  10.903000  67.614100 -27.311400  37.752200 -12.281600 -19.172700  47.222000 -29.356600 -66.605000  -7.412400 -35.441200  35.964400  76.261600  33.703400  -0.004533   0.003101  11.851700   0.005276   0.009707  28.143200  -0.301082  -0.565727  22.986300   0.059303   0.031120  16.090400   0.045997   0.004901  26.003500  -4.244840  -8.651650  26.245600   0.152623   0.101586  17.479600   0.117882   0.030672  27.135500  -4.441830  -8.607150  28.421400   0.140447   0.085368  18.928800   0.107245   0.020994  30.143000  -4.851360  -8.305610  45.769800   0.139408   0.025164  30.482700   0.087717  -0.034310   5.486110  11.800400   0.010009   1.743030   5.331300  12.415200  -8.282880  -4.108020  -3.459190   0.000000   0.000000  -0.000000   0.372235  15.807700  -6.239790   2.546680   0.085138 -13.300700  -1.335890  -4.773800   4.428220   0.000000   0.000000   0.000000
 -4.967510  89.122800   1.697850   0.484421 -10.818600   1.961300   1.541580   8.304880  -2.726680   3.539680  16.522200  -5.772510   2.718630   1.605330  -0.076100   4.475480   3.233860  15.730600  -6.607150  -1.946680   8.892910 -67.859300 -13.887900 -32.554600   4.029050 -10.871700 -55.353000   3.542090 -76.814700   1.262770  50.215900  40.805000 -71.924500 -24.405500   0.011016   0.005040  -7.202740   0.001289  -0.006604 -30.567300  -1.368790   2.349530 -25.024500   0.014150   0.001675 -17.517200   0.009729   0.000961 -32.097000  -3.648910   5.820500 -48.751400   0.068472   0.008585 -32.468500   0.032193   0.032757 -27.798800  -3.891060   7.300160 -31.340200   0.066897  -0.000886 -20.872600   0.042230   0.014231 -27.552100  -6.698150  12.651100 -42.417400   0.051006   0.001693 -28.250000   0.027661   0.020251   6.743560   2.437120  10.953500  66.716400 -26.755500  36.192500 -12.438900 -18.148100  46.661700 -26.932500 -63.036900  -4.367210 -35.577900  35.823600  76.216600  34.322900  -0.005887   0.004174  12.161400   0.006186   0.007953  29.240800  -0.636123  -1.143570  23.894000   0.050498   0.023631  16.725800   0.038611   0.003832  27.007700  -4.245460  -8.399450  28.816100   0.136645   0.080393  19.191500   0.103518   0.019162  27.578800  -4.373650  -8.375140  30.752700   0.117841   0.064147  20.481400   0.088382   0.011693  31.503800  -4.898000  -8.022000  47.800100   0.115655   0.014147  31.834900   0.070100  -0.031124   5.468030  11.700400  -0.002564   1.738150   5.249430  12.404000  -8.266420  -4.095960  -3.467260   0.000000   0.000000   0.000000   0.346149  15.721600  -6.247350   2.575940   0.023022 -13.320100  -1.336800  -4.785580   4.399020  -0.000000   0.000000  -0.000000
 -4.928170  89.126600   1.763400   0.481859 -10.650000   2.019710   1.524110   8.193950  -2.710150   3.496590  16.302000  -5.730660   2.543280   1.468610  -0.065156   4.185630   2.960760  15.571900  -6.681550  -1.998590   8.814110 -66.808000 -12.913600 -30.464800   4.125010  -9.824000 -55.527300   3.506420 -74.384700   1.239650  51.019800  41.497500 -71.301600 -24.840500   0.011662   0.005540  -7.420230   0.001401  -0.006744 -30.870300  -1.717740   2.885930 -25.270700   0.003405   0.001751 -17.689500   0.002283   0.001056 -33.264500  -3.635940   5.537550 -50.176600   0.041810   0.007539 -33.417600   0.018441   0.022496 -27.849100  -4.219410   7.947910 -32.752700   0.032608   0.000962 -21.813300   0.019878   0.008786 -28.215100  -7.017050  12.855800 -43.486100   0.026928   0.002357 -28.961800   0.013749   0.012167   6.806770   2.386250  11.023900  65.737800 -26.142500  34.475000 -12.404200 -16.967700  46.108800 -24.754300 -59.219600  -1.722300 -35.712600  35.691000  76.168100  34.849400  -0.006623   0.004784  12.424700   0.007098   0.005407  30.258300  -1.014600  -1.753730  24.743800   0.037502   0.012890  17.320700   0.027755   0.003087  27.729300  -4.234480  -8.003170  31.569500   0.111668   0.047819  21.025300   0.080868   0.001754  27.861500  -4.254200  -7.996760  33.113000   0.084345   0.032972  22.053300   0.060343  -0.001510  32.881800  -4.909540  -7.562140  49.833400   0.079839  -0.001075  33.189100   0.043772  -0.026607   5.450390  11.613600  -0.015148   1.728720   5.150600  12.389700  -8.245820  -4.084960  -3.471300   0.000000   0.000000   0.000000   0.322762  15.618000  -6.246060   2.599270  -0.015828 -13.351000  -1.337150  -4.803320   4.363960  -0.000000   0.000000  -0.000000
